<?xml version="1.0" encoding="UTF-8"?>
<svg version="1.1" xmlns="http://www.w3.org/2000/svg" width="1024" height="1024">
<path d="M0 0 C337.92 0 675.84 0 1024 0 C1024 337.92 1024 675.84 1024 1024 C686.08 1024 348.16 1024 0 1024 C0 686.08 0 348.16 0 0 Z " fill="#F8F8F9" transform="translate(0,0)"/>
<path d="M0 0 C2.1598758 -0.00248173 4.31974499 -0.00643326 6.47961807 -0.01062775 C10.48414631 -0.01760584 14.48860535 -0.01479844 18.49313736 -0.01032257 C20.22867371 -0.01328339 20.22867371 -0.01328339 21.99927139 -0.01630402 C49.4231803 0.06115968 49.4231803 0.06115968 58.87204361 8.37248993 C69.60556766 20.04030858 75.8643608 38.54436201 75.74704361 54.12248993 C50.5555668 54.43633723 25.45795151 54.39999753 0.30244827 52.9189949 C-35.94306888 50.82140859 -72.20875368 50.18623637 -108.50408173 49.58510971 C-113.8552088 49.49627064 -119.20626059 49.40332415 -124.5573082 49.30983734 C-188.61641825 48.19363809 -252.67246902 47.38258536 -316.74153268 47.1472981 C-322.01661113 47.12770482 -327.29167459 47.10538399 -332.56673813 47.08214569 C-414.12334208 46.7251684 -495.64655229 46.90262719 -577.19045639 48.49748993 C-578.41929204 48.52141721 -578.41929204 48.52141721 -579.67295265 48.54582787 C-615.97473119 49.25334956 -652.27220777 50.11602016 -688.56759572 51.09738207 C-690.89957032 51.16034308 -693.23155771 51.22281185 -695.56354713 51.2852211 C-712.06729855 51.72856926 -728.56321355 52.2458075 -745.0552597 53.02188873 C-750.05795148 53.25089066 -755.05792243 53.4191916 -760.06545639 53.49748993 C-761.0225853 53.53487274 -761.9797142 53.57225555 -762.96584702 53.61077118 C-772.32238944 53.72541908 -779.85663113 50.11052247 -786.70998764 43.79436493 C-790.07152203 40.15199349 -793.14719817 36.44917085 -793.37795639 31.37248993 C-791.84169866 28.29997447 -790.10457487 27.03813002 -787.25295639 25.12248993 C-783.90847397 24.33350372 -783.90847397 24.33350372 -780.08498764 23.94207001 C-779.38678406 23.86817708 -778.68858047 23.79428415 -777.96921921 23.71815205 C-769.64552503 22.88003733 -761.293256 22.43628653 -752.94045639 22.00920868 C-751.16705371 21.91421742 -749.39367794 21.81872291 -747.620327 21.72277069 C-742.83491039 21.46536289 -738.04914608 21.21511103 -733.26325607 20.96667862 C-728.12977949 20.69947674 -722.99656209 20.42737295 -717.86330795 20.15593719 C-711.42998104 19.81610112 -704.99660997 19.47716955 -698.56307602 19.1412735 C-685.33968548 18.45006174 -672.11826882 17.72966085 -658.89776039 16.98549461 C-612.72114024 14.39318861 -566.53891126 12.3997875 -520.31545639 10.87248993 C-519.05623871 10.83063946 -517.79702103 10.78878899 -516.49964523 10.74567032 C-487.94005738 9.79800057 -459.38267972 8.99670464 -430.81245041 8.45456696 C-416.90328649 8.18928581 -403.00444927 7.80113288 -389.10134506 7.30654144 C-359.32537979 6.26452916 -329.54106043 5.63552688 -299.75295639 5.05998993 C-298.64822102 5.03857563 -297.54348564 5.01716133 -296.40527344 4.99509811 C-272.54428701 4.53406574 -248.68339257 4.11144755 -224.81936264 3.84514618 C-223.50850126 3.83051488 -223.50850126 3.83051488 -222.17115784 3.815588 C-215.38675476 3.74043054 -208.60232676 3.66757015 -201.81788254 3.59622574 C-180.8643917 3.37506707 -159.94248919 2.97061614 -139.00295639 2.12248993 C-92.70155922 0.25157924 -46.33492486 0.04592028 0 0 Z " fill="#020202" transform="translate(871.2529563903809,556.8775100708008)"/>
<path d="M0 0 C5.24485562 4.54554153 10.32121813 9.56798728 11.375 16.63671875 C11.9734564 33.50932828 1.93616331 45.92962992 -8.99951172 57.76855469 C-18.02544496 67.30933997 -27.45944525 75.94287077 -38.06640625 83.67578125 C-38.66227539 84.12131348 -39.25814453 84.5668457 -39.87207031 85.02587891 C-82.32053993 116.73397116 -137.24905032 143.59476849 -189.06640625 155.67578125 C-189.72640625 155.34578125 -190.38640625 155.01578125 -191.06640625 154.67578125 C-191.06640625 154.01578125 -191.06640625 153.35578125 -191.06640625 152.67578125 C-192.05640625 152.34578125 -193.04640625 152.01578125 -194.06640625 151.67578125 C-192.08640625 151.34578125 -190.10640625 151.01578125 -188.06640625 150.67578125 C-185.75898432 143.38918567 -183.87465766 136.03943744 -182.13208008 128.60058594 C-179.05903309 115.89067754 -174.55942889 103.92336168 -169.12890625 92.05078125 C-168.56741629 90.80791184 -168.00622566 89.56490717 -167.4453125 88.32177734 C-164.48553509 81.79391228 -161.43171066 75.3168592 -158.28125 68.87890625 C-157.81369041 67.9214299 -157.81369041 67.9214299 -157.33668518 66.9446106 C-155.84742897 63.89971166 -154.34617006 60.86240782 -152.82446289 57.83349609 C-147.96603983 47.99976845 -144.17614565 37.97250714 -141.81640625 27.23828125 C-138.54083593 16.4502616 -125.40531883 10.67971416 -116.06640625 5.67578125 C-82.11510582 -12.06362048 -34.45140192 -25.20357759 0 0 Z " fill="#F7F7F8" transform="translate(937.06640625,335.32421875)"/>
<path d="M0 0 C8.47164665 7.62618602 15.39959846 16.26184737 16.38647461 27.96337891 C16.79783665 47.05541734 7.30169484 62.07110297 -4.85961914 76.04541016 C-5.33415527 76.59293945 -5.80869141 77.14046875 -6.29760742 77.70458984 C-17.8680926 90.91791924 -30.80934566 102.53652612 -44.85961914 113.04541016 C-45.52413086 113.54508301 -46.18864258 114.04475586 -46.87329102 114.55957031 C-69.42546177 131.43166265 -93.46968858 145.88176167 -118.85961914 158.04541016 C-120.14618408 158.66585205 -120.14618408 158.66585205 -121.45874023 159.29882812 C-137.25415231 166.87144029 -153.34195896 173.23056 -169.85961914 179.04541016 C-171.2032251 179.52349121 -171.2032251 179.52349121 -172.57397461 180.01123047 C-186.67115776 185.00484309 -201.70290473 190.27330683 -216.85961914 188.04541016 C-222.59117107 184.90827896 -222.59117107 184.90827896 -223.73461914 181.23291016 C-222.32148426 176.08506165 -219.17832027 173.97329149 -214.85961914 171.04541016 C-204.59835703 165.61523078 -193.78097503 161.66990404 -182.86410522 157.79364014 C-134.38823491 140.54299734 -86.39943893 120.3766154 -45.85961914 88.04541016 C-45.29484863 87.59633301 -44.73007812 87.14725586 -44.14819336 86.68457031 C-28.13618314 73.83276358 -5.25739116 55.1395217 -2.39477539 33.53759766 C-2.11787777 27.17570594 -2.30030023 21.94429247 -6.26196289 16.77978516 C-6.78918945 16.20744141 -7.31641602 15.63509766 -7.85961914 15.04541016 C-8.69686523 14.12501953 -8.69686523 14.12501953 -9.55102539 13.18603516 C-23.05805572 -0.01081285 -47.3753899 -3.3903598 -65.59985352 -3.32080078 C-94.05652458 -2.57937387 -131.0358919 10.36667017 -150.97680664 31.26416016 C-153.33832692 34.75254696 -154.2642099 38.06021989 -155.29711914 42.10791016 C-158.45319655 54.26507476 -163.88406862 65.31817323 -169.42211914 76.54541016 C-174.34289085 86.61417251 -179.04848973 96.75364565 -183.48461914 107.04541016 C-183.96874268 108.15851563 -184.45286621 109.27162109 -184.95166016 110.41845703 C-189.96797941 122.20074807 -193.28297066 134.20495424 -196.01391602 146.68798828 C-197.10948728 151.50207832 -198.27265157 155.77039479 -200.85961914 160.04541016 C-203.56841249 161.39980683 -205.86895182 161.11042466 -208.85961914 161.04541016 C-213.70648463 152.75883368 -215.46596852 145.77122753 -213.15991211 136.11572266 C-212.13703446 133.04552966 -210.99842882 130.05030088 -209.79711914 127.04541016 C-209.3573877 125.90168945 -208.91765625 124.75796875 -208.46459961 123.57958984 C-204.04299919 112.21062341 -199.28967201 100.97310763 -194.56640625 89.72705078 C-190.50577379 80.051727 -186.50126376 70.35750018 -182.66497803 60.59069824 C-182.13219763 59.23765002 -181.59551156 57.88613258 -181.05474854 56.53625488 C-180.3120127 54.67909508 -179.5853959 52.81551292 -178.85961914 50.95166016 C-178.44711914 49.90300781 -178.03461914 48.85435547 -177.60961914 47.77392578 C-176.83976841 44.9731928 -176.78073492 43.70277555 -177.85961914 41.04541016 C-178.18961914 40.71541016 -178.51961914 40.38541016 -178.85961914 40.04541016 C-179.51971699 35.4247252 -179.00397494 32.73854054 -176.29711914 29.04541016 C-175.1762483 27.69102455 -174.03019128 26.35707805 -172.85961914 25.04541016 C-172.36461914 24.48080078 -171.86961914 23.91619141 -171.35961914 23.33447266 C-151.48818399 2.17139422 -121.61442134 -12.03690097 -93.85961914 -18.95458984 C-92.30307617 -19.35291016 -92.30307617 -19.35291016 -90.71508789 -19.75927734 C-61.72880641 -25.81363657 -22.87594263 -19.62575196 0 0 Z " fill="#030303" transform="translate(949.859619140625,325.95458984375)"/>
<path d="M0 0 C4.27309331 3.74685029 6.32238287 7.60431025 7.1484375 13.203125 C5.84612973 29.93777984 -7.33605416 42.99197966 -18.4140625 54.390625 C-19.15011719 55.17308594 -19.88617187 55.95554687 -20.64453125 56.76171875 C-22.4140625 58.390625 -22.4140625 58.390625 -24.4140625 58.390625 C-24.4140625 59.050625 -24.4140625 59.710625 -24.4140625 60.390625 C-23.805625 60.1740625 -23.1971875 59.9575 -22.5703125 59.734375 C-10.11958297 55.77943739 3.87351356 55.68939852 15.7890625 61.45703125 C21.75297095 64.90562717 28.00951604 69.82917783 30.5859375 76.390625 C32.03990114 85.67362363 29.6718236 92.67343103 24.5859375 100.390625 C21.20991459 104.98368333 17.44484286 109.20242991 13.5859375 113.390625 C12.75320313 114.31746094 11.92046875 115.24429688 11.0625 116.19921875 C-4.48293846 132.67738351 -25.10518528 144.97197886 -46.4140625 152.390625 C-47.58066406 152.80441406 -48.74726562 153.21820313 -49.94921875 153.64453125 C-62.64435667 157.60917171 -78.79630664 159.22099385 -91.2421875 153.671875 C-95.2566913 151.30360657 -99.28872691 148.64129617 -101.4140625 144.390625 C-101.78658857 140.96338517 -101.78188022 139.02594652 -100.0390625 136.015625 C-96.01047927 133.52174014 -92.03241468 133.80133971 -87.4140625 134.390625 C-86.4859375 134.72191406 -85.5578125 135.05320312 -84.6015625 135.39453125 C-67.19736437 140.83334317 -49.19430585 132.78007968 -34.02978516 124.83935547 C-17.15404108 115.49264412 2.60519872 100.47715134 10.5859375 82.390625 C11.28501164 79.65489915 11.28501164 79.65489915 11.5859375 77.390625 C-4.66134479 76.40924553 -19.4984417 79.79125486 -35.0546875 84.28125 C-36.158125 84.59956787 -37.2615625 84.91788574 -38.3984375 85.24584961 C-40.51270723 85.86562021 -42.62252177 86.50088614 -44.7265625 87.15454102 C-52.18274014 89.37795642 -60.32552598 91.39480957 -67.6015625 87.828125 C-69.4140625 85.390625 -69.4140625 85.390625 -70.1640625 82.140625 C-68.03986167 71.51962084 -54.34517984 62.69671164 -46.3515625 55.953125 C-34.05202529 45.21016823 -24.22622144 32.2317367 -17.4140625 17.390625 C-24.83728363 18.64168412 -31.71790708 20.7114637 -38.7890625 23.265625 C-40.81499806 23.98207096 -42.8410387 24.69821984 -44.8671875 25.4140625 C-46.71629309 26.07250326 -48.56526609 26.7313166 -50.4140625 27.390625 C-52.78569638 28.23485748 -55.15977642 29.06793653 -57.5390625 29.890625 C-58.38726563 30.1896875 -59.23546875 30.48875 -60.109375 30.796875 C-62.67868097 31.45879789 -64.77230289 31.64243152 -67.4140625 31.390625 C-70.34072956 28.70784686 -71.32308638 26.7302692 -72.3515625 22.890625 C-72.42440356 18.81152542 -71.83851244 17.60642346 -69.4140625 14.390625 C-53.47611408 3.87343229 -17.75532555 -11.00985252 0 0 Z " fill="#030303" transform="translate(692.4140625,346.609375)"/>
<path d="M0 0 C0.93199219 -0.00128906 1.86398437 -0.00257813 2.82421875 -0.00390625 C5.3125 0.5625 5.3125 0.5625 7.14453125 2.09765625 C9.46636345 6.99757637 8.70902524 11.31252638 7.1328125 16.28125 C6.58724321 17.5502445 6.02110994 18.8105446 5.4375 20.0625 C5.12433838 20.75045654 4.81117676 21.43841309 4.48852539 22.1472168 C-0.94641975 33.71605498 -8.17454549 43.98660325 -15.8125 54.1875 C-19.96105971 59.74016181 -24.02043099 65.28622845 -27.5625 71.25 C-28.17867188 72.28511719 -28.79484375 73.32023437 -29.4296875 74.38671875 C-31.0219789 78.40700728 -30.92018898 81.26706145 -30.6875 85.5625 C-10.60197689 83.76379644 9.07903429 58.8535425 22.8125 45.1875 C23.45856201 44.54611084 24.10462402 43.90472168 24.77026367 43.24389648 C28.56010944 39.44129525 32.15891847 35.52181682 35.66894531 31.45996094 C39.55253622 26.97640946 43.59998582 22.64186414 47.66259766 18.32080078 C48.78411097 17.12560414 49.90081319 15.92587858 51.01318359 14.72216797 C52.70096614 12.90289482 54.40979258 11.10589849 56.125 9.3125 C56.89674561 8.47102417 56.89674561 8.47102417 57.68408203 7.61254883 C60.36768021 4.85366535 62.25330856 3.57918695 65.984375 2.52734375 C69.3125 2.5625 69.3125 2.5625 71.30859375 3.64453125 C74.79161579 7.82604551 76.256716 11.09117398 75.890625 16.57421875 C73.8149062 27.3034409 68.88471814 36.68153276 63.33984375 45.97265625 C61.08111909 49.85514452 59.2327472 53.88622941 57.4375 58 C57.15140869 58.65033203 56.86531738 59.30066406 56.57055664 59.97070312 C53.21456127 67.81782477 50.53199682 75.56653525 53.03515625 83.99609375 C54.93455168 88.67921852 56.79894605 91.99798071 61.3125 94.5625 C67.30173544 96.7095844 73.36310427 96.92140496 79.67700195 97.13354492 C83.35407197 97.2881777 86.17466139 97.5568712 89.3125 99.5625 C88.85701813 104.45893015 87.90292714 107.15159421 84.3125 110.5625 C77.31370301 115.29516669 69.50996421 115.72200974 61.3125 114.5625 C50.02614248 110.96768661 41.37176314 102.79528438 35.59765625 92.58203125 C32.37583847 85.01222838 29.89145038 75.80535602 30.3125 67.5625 C26.80207465 69.53519976 24.01647694 71.64609239 21.125 74.4375 C9.72248958 84.8713918 -3.50262341 93.54489489 -16.6875 101.5625 C-17.53183594 102.11035156 -18.37617188 102.65820312 -19.24609375 103.22265625 C-26.32860726 107.397734 -33.63157491 107.81983502 -41.6875 106.5625 C-46.52859135 104.4950264 -50.72342011 100.62570427 -53.0546875 95.84765625 C-56.28342158 84.18833875 -52.806704 73.95589089 -47.6875 63.5625 C-47.12409912 62.39871826 -47.12409912 62.39871826 -46.54931641 61.21142578 C-38.09432391 43.92498505 -27.93201019 27.60646928 -16.6875 12 C-16.26726562 11.41105957 -15.84703125 10.82211914 -15.4140625 10.21533203 C-11.3139523 4.67724528 -7.35146819 -0.17430259 0 0 Z " fill="#030303" transform="translate(285.6875,395.4375)"/>
<path d="M0 0 C4.14352364 3.48432669 5.90466172 6.23339915 6.4375 11.625 C6.13753354 23.35898216 -3.34361269 36.32536081 -10.875 44.625 C-11.65101563 45.48738281 -12.42703125 46.34976563 -13.2265625 47.23828125 C-16.08786968 50.17139729 -17.76155566 50.48480303 -21.75 50.5625 C-22.94109375 50.60117187 -22.94109375 50.60117187 -24.15625 50.640625 C-24.8471875 50.53234375 -25.538125 50.4240625 -26.25 50.3125 C-28.65761906 46.7010714 -28.72154776 45.58590159 -28.25 41.3125 C-27.12411315 38.0871824 -25.70745484 35.02474388 -24.25 31.9375 C-23.8684375 31.10605469 -23.486875 30.27460938 -23.09375 29.41796875 C-22.15580424 27.37793673 -21.20776115 25.34328477 -20.25 23.3125 C-25.2811643 25.94370518 -29.12841568 28.75133014 -32.9375 33 C-33.44514893 33.55961426 -33.95279785 34.11922852 -34.47583008 34.69580078 C-48.29577545 50.30836255 -68.48562777 76.17140583 -68.5625 97.875 C-68.57925781 98.96941406 -68.59601563 100.06382812 -68.61328125 101.19140625 C-68.2036312 104.71087277 -67.41809291 106.5277486 -65.25 109.3125 C-60.35364889 112.76505527 -53.93167652 111.79680091 -48.25 111.3125 C-43.50920462 110.3872341 -38.89189057 109.18331489 -34.24658203 107.86816406 C-32.33806551 107.33700931 -30.41716898 106.85095462 -28.49609375 106.3671875 C-12.4239019 102.31079125 2.72542244 96.21647039 17.875 89.5625 C20.18400255 88.55043405 22.49374994 87.54024669 24.80587769 86.53533936 C26.22467692 85.91856588 27.64175648 85.29781368 29.05667114 84.67218018 C43.1458934 78.54168977 43.1458934 78.54168977 50.1875 81.25 C52.02451943 83.67486565 52.0402989 84.51883184 51.9375 87.5 C50.98266635 93.26644638 48.0195876 96.52156784 43.75 100.3125 C36.43803905 105.37527773 28.33638674 109.05469062 20.25 112.6875 C19.62493561 112.96874725 18.99987122 113.24999451 18.35586548 113.5397644 C5.49157428 119.29099099 -7.6464688 123.6298943 -21.25 127.3125 C-22.0740332 127.53760254 -22.89806641 127.76270508 -23.74707031 127.99462891 C-28.22690424 129.2038214 -32.72112386 130.29897059 -37.25 131.3125 C-38.65958984 131.64894531 -38.65958984 131.64894531 -40.09765625 131.9921875 C-52.26964379 134.60943372 -67.00949665 135.34562125 -77.9375 128.6875 C-84.22840217 124.17828691 -88.25364218 118.812092 -90.25 111.3125 C-93.93622198 86.54372773 -79.6660989 65.09294357 -65.65893555 45.875 C-61.0689884 39.70344604 -56.26146037 33.83751552 -50.9921875 28.23046875 C-49.08550203 26.22700893 -49.08550203 26.22700893 -47.25 23.3125 C-46.59 23.3125 -45.93 23.3125 -45.25 23.3125 C-45.03859375 22.76078125 -44.8271875 22.2090625 -44.609375 21.640625 C-42.77185396 18.4936062 -40.25995797 16.37415227 -37.5 14.0625 C-36.93015381 13.58304932 -36.36030762 13.10359863 -35.77319336 12.60961914 C-26.64024616 5.14580106 -11.90984687 -6.18395895 0 0 Z " fill="#030303" transform="translate(174.25,375.6875)"/>
<path d="M0 0 C2.625 0.4375 2.625 0.4375 4.8125 2.6875 C5.410625 3.595 6.00875 4.5025 6.625 5.4375 C7.0375 6.05625 7.45 6.675 7.875 7.3125 C9.82905334 12.84898447 8.39804071 17.88577861 6.32421875 23.1484375 C6.08717728 23.76087311 5.8501358 24.37330872 5.60591125 25.00430298 C4.85240041 26.9448671 4.08316729 28.87869372 3.3125 30.8125 C-3.31479373 47.21812576 -3.31479373 47.21812576 -6.5625 64.5 C-6.64435547 65.36560547 -6.72621094 66.23121094 -6.81054688 67.12304688 C-7.00815552 69.22699774 -7.19295005 71.33214582 -7.375 73.4375 C-5.41675069 73.46512421 -3.45838017 73.48417014 -1.5 73.5 C-0.40945313 73.51160156 0.68109375 73.52320313 1.8046875 73.53515625 C4.65855137 73.46220472 7.3398298 73.26883772 10.1640625 72.9453125 C16.81117202 72.23856151 23.44638899 72.25343197 30.125 72.25 C31.37925781 72.23775391 32.63351562 72.22550781 33.92578125 72.21289062 C51.69379472 72.18498275 51.69379472 72.18498275 56.35742188 75.76879883 C58.17535855 78.16201863 58.21603616 80.49696663 58.11328125 83.43359375 C57.19474744 87.2032565 54.8253499 88.40650872 51.625 90.4375 C47.85632433 91.80996022 43.97831 91.51198932 40.02734375 91.4296875 C38.49659502 91.40939598 36.96583217 91.3901481 35.43505859 91.37182617 C34.23994659 91.35616104 34.23994659 91.35616104 33.02069092 91.34017944 C6.44529489 89.97834683 6.44529489 89.97834683 -17.375 99.4375 C-21.82503177 104.80249157 -24.10763034 110.26586929 -26.375 116.8125 C-26.72111328 117.78638672 -27.06722656 118.76027344 -27.42382812 119.76367188 C-29.64762392 126.10252906 -31.61773317 132.48178971 -33.44140625 138.94482422 C-35.18681177 145.02629096 -37.23899395 150.98293565 -39.375 156.9375 C-39.69533203 157.84564453 -40.01566406 158.75378906 -40.34570312 159.68945312 C-46.10109571 175.49062187 -46.10109571 175.49062187 -52.375 179.4375 C-56.08244055 179.989672 -57.93800586 179.6513482 -61.3125 178 C-63.375 175.4375 -63.375 175.4375 -63.203125 171.48046875 C-62.42955084 165.88455575 -60.83670536 160.57842247 -59.1875 155.1875 C-58.55023578 153.05485042 -57.9135273 150.9220347 -57.27734375 148.7890625 C-56.95749512 147.72461914 -56.63764648 146.66017578 -56.30810547 145.56347656 C-54.91815495 140.90703323 -53.58018088 136.23630973 -52.25 131.5625 C-52.00854248 130.71631104 -51.76708496 129.87012207 -51.51831055 128.99829102 C-49.09535759 120.48966739 -46.7283009 111.96561256 -44.375 103.4375 C-46.95861841 103.91516899 -49.54189338 104.39457792 -52.125 104.875 C-52.85460937 105.00970703 -53.58421875 105.14441406 -54.3359375 105.28320312 C-58.40881624 106.03528176 -58.40881624 106.03528176 -62.44287109 106.9675293 C-67.49232182 108.19575682 -73.56443427 108.51848682 -78.45703125 106.63671875 C-81.68159236 104.35363533 -82.85647024 101.73187157 -83.5625 98 C-83.69567759 94.50843111 -83.35203851 93.39485724 -81.625 90.1875 C-72.8534946 81.36699178 -58.52404108 80.04434823 -46.84960938 78.58203125 C-45.94662109 78.46214844 -45.04363281 78.34226562 -44.11328125 78.21875 C-43.29899658 78.11626953 -42.48471191 78.01378906 -41.64575195 77.90820312 C-38.26884008 77.23043239 -38.26884008 77.23043239 -35.375 75.4375 C-34.14267203 72.67281866 -33.15820141 70.06299142 -32.23828125 67.1953125 C-31.9575325 66.36376144 -31.67678375 65.53221039 -31.38752747 64.67546082 C-30.78726881 62.89625089 -30.19305223 61.11499324 -29.60430908 59.3319397 C-28.07936133 54.72547262 -26.50016038 50.13784692 -24.91796875 45.55078125 C-24.45632324 44.21037025 -24.45632324 44.21037025 -23.98535156 42.84288025 C-9.74253421 1.79467735 -9.74253421 1.79467735 0 0 Z " fill="#030303" transform="translate(561.375,327.5625)"/>
<path d="M0 0 C4.33764633 2.36598891 4.33764633 2.36598891 6 5 C6.7993272 8.4827828 6.96477514 11.55052466 6 15 C2.29860027 19.53743017 -2.34183454 22.35676291 -7.3125 25.3125 C-8.15047119 25.81595947 -8.98844238 26.31941895 -9.85180664 26.83813477 C-19.6762491 32.60339203 -29.92741934 37.55992202 -40.19458008 42.47973633 C-40.87152924 42.80875946 -41.54847839 43.13778259 -42.24594116 43.47677612 C-44.09775718 44.37669378 -45.95484205 45.26574631 -47.81225586 46.15405273 C-51.12387532 48.07173327 -53.43144837 50.1825378 -56 53 C-55.03964844 53.01417969 -54.07929688 53.02835937 -53.08984375 53.04296875 C-33.67220115 53.61201925 -9.33632632 56.63323562 5 71 C8.93943673 76.41111697 8.86209303 81.52585035 8 88 C2.30929806 104.49728744 -20.91177554 114.17678692 -35.35058594 121.26370239 C-74.66690167 140.3855564 -74.66690167 140.3855564 -87 137 C-89 135.25 -89 135.25 -90 133 C-89.50113195 127.32419934 -86.54375727 124.61628892 -82.5625 120.8046875 C-70.95724644 111.1085529 -55.49302746 105.06756794 -41.8527832 98.82836914 C-32.9700622 94.71397262 -21.3021721 89.28363453 -17 80 C-16.95351784 78.33398164 -16.94716069 76.66582886 -17 75 C-24.65537511 72.86162707 -32.19047647 71.50173886 -40.07421875 70.52734375 C-46.11312028 69.71614802 -52.07442563 68.57553449 -58.04785156 67.38232422 C-59.9630293 67.00724063 -61.88388299 66.66152 -63.8046875 66.31640625 C-70.83150695 64.97904384 -77.23034959 63.42160125 -83 59 C-85 56 -85 56 -85.125 52.8125 C-79.40571855 33.43049064 -42.7417443 18.52332271 -26.3125 9.5 C-25.4162793 9.00749756 -24.52005859 8.51499512 -23.59667969 8.00756836 C-6.71844011 -1.14086719 -6.71844011 -1.14086719 0 0 Z " fill="#030303" transform="translate(472,370)"/>
<path d="M0 0 C0.66 0.66 1.32 1.32 2 2 C1.7578125 4.3828125 1.7578125 4.3828125 1.125 7.125 C0.92132812 8.03507812 0.71765625 8.94515625 0.5078125 9.8828125 C0.34023438 10.58148438 0.17265625 11.28015625 0 12 C-0.66 12 -1.32 12 -2 12 C-1.85962479 10.18706911 -1.71255111 8.3746557 -1.5625 6.5625 C-1.48128906 5.55316406 -1.40007813 4.54382813 -1.31640625 3.50390625 C-1 1 -1 1 0 0 Z " fill="#D6D6D6" transform="translate(724,425)"/>
<path d="M0 0 C2.0625 2.25 2.0625 2.25 4 5 C3.75 7.3125 3.75 7.3125 3 9 C2.34 9 1.68 9 1 9 C0.67 6.03 0.34 3.06 0 0 Z " fill="#EEEEED" transform="translate(770,363)"/>
</svg>
